<svg width="1920" height="1080" viewBox="0 0 1920 1080" fill="none" xmlns="http://www.w3.org/2000/svg">
<g clip-path="url(#clip0_26_1039)">
<path d="M872 428L754 424L726 462L872 428Z" fill="#0B102B" stroke="#0B102B" stroke-width="1.51"/>
<path d="M726 462L837 676L872 428L726 462Z" fill="#0B0E26" stroke="#0B0E26" stroke-width="1.51"/>
<path d="M726 462L664 606L837 676L726 462Z" fill="#0B0E26" stroke="#0B0E26" stroke-width="1.51"/>
<path d="M726 462L631 543L664 606L726 462Z" fill="#0B0F29" stroke="#0B0F29" stroke-width="1.51"/>
<path d="M637 387L631 543L726 462L637 387Z" fill="#0A112D" stroke="#0A112D" stroke-width="1.51"/>
<path d="M754 424L637 387L726 462L754 424Z" fill="#0B112D" stroke="#0B112D" stroke-width="1.51"/>
<path d="M734 269L637 387L754 424L734 269Z" fill="#0A1230" stroke="#0A1230" stroke-width="1.51"/>
<path d="M1122 721L1069 370L872 428L1122 721Z" fill="#0A0D22" stroke="#0A0D22" stroke-width="1.51"/>
<path d="M630 789L855 723L837 676L630 789Z" fill="#090B1F" stroke="#090B1F" stroke-width="1.51"/>
<path d="M872 428L734 269L754 424L872 428Z" fill="#0A112E" stroke="#0A112E" stroke-width="1.51"/>
<path d="M637 387L569 511L631 543L637 387Z" fill="#0B102C" stroke="#0B102C" stroke-width="1.51"/>
<path d="M631 543L473 614L664 606L631 543Z" fill="#0B0E27" stroke="#0B0E27" stroke-width="1.51"/>
<path d="M1122 721L872 428L837 676L1122 721Z" fill="#090C20" stroke="#090C20" stroke-width="1.51"/>
<path d="M872 428L982 212L734 269L872 428Z" fill="#0B0F2A" stroke="#0B0F2A" stroke-width="1.51"/>
<path d="M1069 370L982 212L872 428L1069 370Z" fill="#0B0F29" stroke="#0B0F29" stroke-width="1.51"/>
<path d="M664 606L630 789L837 676L664 606Z" fill="#0A0C22" stroke="#0A0C22" stroke-width="1.51"/>
<path d="M473 614L630 789L664 606L473 614Z" fill="#0B0D24" stroke="#0B0D24" stroke-width="1.51"/>
<path d="M569 511L473 614L631 543L569 511Z" fill="#0B0F27" stroke="#0B0F27" stroke-width="1.51"/>
<path d="M346 425L473 614L569 511L346 425Z" fill="#0B0E27" stroke="#0B0E27" stroke-width="1.51"/>
<path d="M855 723L1122 721L837 676L855 723Z" fill="#070A1C" stroke="#070A1C" stroke-width="1.51"/>
<path d="M823 858L860 852L855 723L823 858Z" fill="#090C21" stroke="#090C21" stroke-width="1.51"/>
<path d="M630 789L823 858L855 723L630 789Z" fill="#0A0C22" stroke="#0A0C22" stroke-width="1.51"/>
<path d="M1089 889L1122 721L855 723L1089 889Z" fill="#07091B" stroke="#07091B" stroke-width="1.51"/>
<path d="M1069 370L1160 280L982 212L1069 370Z" fill="#0A0D24" stroke="#0A0D24" stroke-width="1.51"/>
<path d="M1329 467L1160 280L1069 370L1329 467Z" fill="#0A0D24" stroke="#0A0D24" stroke-width="1.51"/>
<path d="M823 858L824 909L860 852L823 858Z" fill="#090D23" stroke="#090D23" stroke-width="1.51"/>
<path d="M1089 889L1181 792L1122 721L1089 889Z" fill="#06081A" stroke="#06081A" stroke-width="1.51"/>
<path d="M630 789L824 909L823 858L630 789Z" fill="#0A0D24" stroke="#0A0D24" stroke-width="1.51"/>
<path d="M982 212L756 57L734 269L982 212Z" fill="#0B0E26" stroke="#0B0E26" stroke-width="1.51"/>
<path d="M1003 100L969 92L982 212L1003 100Z" fill="#0A0C21" stroke="#0A0C21" stroke-width="1.51"/>
<path d="M1122 721L1237 578L1069 370L1122 721Z" fill="#080B1D" stroke="#080B1D" stroke-width="1.51"/>
<path d="M1071 113L1003 100L982 212L1071 113Z" fill="#0A0B20" stroke="#0A0B20" stroke-width="1.51"/>
<path d="M969 92L756 57L982 212L969 92Z" fill="#0A0C22" stroke="#0A0C22" stroke-width="1.51"/>
<path d="M734 269L312 123L637 387L734 269Z" fill="#0B102C" stroke="#0B102C" stroke-width="1.51"/>
<path d="M637 387L346 425L569 511L637 387Z" fill="#0B102C" stroke="#0B102C" stroke-width="1.51"/>
<path d="M756 57L737 59L734 269L756 57Z" fill="#0A0E26" stroke="#0A0E26" stroke-width="1.51"/>
<path d="M1160 280L1071 113L982 212L1160 280Z" fill="#0A0C21" stroke="#0A0C21" stroke-width="1.51"/>
<path d="M1005 -131L788 -29L969 92L1005 -131Z" fill="#00081D" stroke="#00081D" stroke-width="1.51"/>
<path d="M312 123L346 425L637 387L312 123Z" fill="#0B102B" stroke="#0B102B" stroke-width="1.51"/>
<path d="M1089 889L855 723L860 852L1089 889Z" fill="#080B1F" stroke="#080B1F" stroke-width="1.51"/>
<path d="M1122 721L1269 682L1237 578L1122 721Z" fill="#050818" stroke="#050818" stroke-width="1.51"/>
<path d="M824 909L1089 889L860 852L824 909Z" fill="#090C22" stroke="#090C22" stroke-width="1.51"/>
<path d="M1181 792L1269 682L1122 721L1181 792Z" fill="#040716" stroke="#040716" stroke-width="1.51"/>
<path d="M1237 578L1329 467L1069 370L1237 578Z" fill="#090B1F" stroke="#090B1F" stroke-width="1.51"/>
<path d="M1335 467H1329L1237 578L1335 467Z" fill="#080A1D" stroke="#080A1D" stroke-width="1.51"/>
<path d="M1308 89L1157 -12L1071 113L1308 89Z" fill="#00081D" stroke="#00081D" stroke-width="1.51"/>
<path d="M756 57L788 -29L737 59L756 57Z" fill="#00081D" stroke="#00081D" stroke-width="1.51"/>
<path d="M247 167L207 410L346 425L247 167Z" fill="#0B0E29" stroke="#0B0E29" stroke-width="1.51"/>
<path d="M969 92L788 -29L756 57L969 92Z" fill="#00081D" stroke="#00081D" stroke-width="1.51"/>
<path d="M1005 -131L969 92L1003 100L1005 -131Z" fill="#00081D" stroke="#00081D" stroke-width="1.51"/>
<path d="M1329 467L1336 355L1160 280L1329 467Z" fill="#0A0C22" stroke="#0A0C22" stroke-width="1.51"/>
<path d="M1363 674L1335 467L1237 578L1363 674Z" fill="#06091B" stroke="#06091B" stroke-width="1.51"/>
<path d="M1181 792L1231 831L1269 682L1181 792Z" fill="#040717" stroke="#040717" stroke-width="1.51"/>
<path d="M1269 682L1363 674L1237 578L1269 682Z" fill="#040717" stroke="#040717" stroke-width="1.51"/>
<path d="M1089 889L1231 831L1181 792L1089 889Z" fill="#06081A" stroke="#06081A" stroke-width="1.51"/>
<path d="M473 614L432 880L630 789L473 614Z" fill="#090C21" stroke="#090C21" stroke-width="1.51"/>
<path d="M630 789L695 1054L824 909L630 789Z" fill="#0A0F28" stroke="#0A0F28" stroke-width="1.51"/>
<path d="M285 678L432 880L473 614L285 678Z" fill="#080A1D" stroke="#080A1D" stroke-width="1.51"/>
<path d="M1335 467L1336 355L1329 467H1335Z" fill="#090C21" stroke="#090C21" stroke-width="1.51"/>
<path d="M346 425L285 678L473 614L346 425Z" fill="#0A0C23" stroke="#0A0C23" stroke-width="1.51"/>
<path d="M432 880L695 1054L630 789L432 880Z" fill="#0A0E29" stroke="#0A0E29" stroke-width="1.51"/>
<path d="M824 909L890 1085L1089 889L824 909Z" fill="#090D25" stroke="#090D25" stroke-width="1.51"/>
<path d="M1327 976L1383 854L1231 831L1327 976Z" fill="#05091B" stroke="#05091B" stroke-width="1.51"/>
<path d="M1336 355L1355 312L1160 280L1336 355Z" fill="#0A0C21" stroke="#0A0C21" stroke-width="1.51"/>
<path d="M1408 285L1355 312L1336 355L1408 285Z" fill="#0A0C23" stroke="#0A0C23" stroke-width="1.51"/>
<path d="M1383 854L1363 674L1269 682L1383 854Z" fill="#030715" stroke="#030715" stroke-width="1.51"/>
<path d="M1465 281L1408 285L1336 355L1465 281Z" fill="#0A0C23" stroke="#0A0C23" stroke-width="1.51"/>
<path d="M695 1054L890 1085L824 909L695 1054Z" fill="#0A0F2A" stroke="#0A0F2A" stroke-width="1.51"/>
<path d="M346 425L207 410L285 678L346 425Z" fill="#0B0D23" stroke="#0B0D23" stroke-width="1.51"/>
<path d="M312 123L734 269L525 -59L312 123Z" fill="#00081D" stroke="#00081D" stroke-width="1.51"/>
<path d="M1071 113L1157 -12L1003 100L1071 113Z" fill="#00081D" stroke="#00081D" stroke-width="1.51"/>
<path d="M1308 89L1071 113L1160 280L1308 89Z" fill="#080A1D" stroke="#080A1D" stroke-width="1.51"/>
<path d="M525 -59L734 269L737 59L525 -59Z" fill="#00081D" stroke="#00081D" stroke-width="1.51"/>
<path d="M312 123L734 269L737 60L312 123Z" fill="#090C20" stroke="#090C20" stroke-width="1.51"/>
<path d="M602 -130L525 -59L737 59L602 -130Z" fill="#00081D" stroke="#00081D" stroke-width="1.51"/>
<path d="M602 -130L737 59L788 -29L602 -130Z" fill="#00081D" stroke="#00081D" stroke-width="1.51"/>
<path d="M1355 312L1308 89L1160 280L1355 312Z" fill="#080A1E" stroke="#080A1E" stroke-width="1.51"/>
<path d="M1465 281L1336 355L1335 467L1465 281Z" fill="#0A0D24" stroke="#0A0D24" stroke-width="1.51"/>
<path d="M1408 285L1308 89L1355 312L1408 285Z" fill="#090B1F" stroke="#090B1F" stroke-width="1.51"/>
<path d="M312 123L247 167L346 425L312 123Z" fill="#0B0D26" stroke="#0B0D26" stroke-width="1.51"/>
<path d="M181 7L247 167L312 123L181 7Z" fill="#090B1F" stroke="#090B1F" stroke-width="1.51"/>
<path d="M1157 -12L1005 -131L1003 100L1157 -12Z" fill="#00081D" stroke="#00081D" stroke-width="1.51"/>
<path d="M300 -139L181 7L312 123L300 -139Z" fill="#00081D" stroke="#00081D" stroke-width="1.51"/>
<path d="M207 410L53 503L285 678L207 410Z" fill="#090C20" stroke="#090C20" stroke-width="1.51"/>
<path d="M247 167L151 360L207 410L247 167Z" fill="#0B0E26" stroke="#0B0E26" stroke-width="1.51"/>
<path d="M1363 674L1476 601L1335 467L1363 674Z" fill="#07091B" stroke="#07091B" stroke-width="1.51"/>
<path d="M1383 854L1476 601L1363 674L1383 854Z" fill="#040717" stroke="#040717" stroke-width="1.51"/>
<path d="M1231 831L1383 854L1269 682L1231 831Z" fill="#040717" stroke="#040717" stroke-width="1.51"/>
<path d="M1213 1047L1231 831L1089 889L1213 1047Z" fill="#070A1D" stroke="#070A1D" stroke-width="1.51"/>
<path d="M890 1085L1213 1047L1089 889L890 1085Z" fill="#090C23" stroke="#090C23" stroke-width="1.51"/>
<path d="M1408 285L1470 229L1308 89L1408 285Z" fill="#090B1F" stroke="#090B1F" stroke-width="1.51"/>
<path d="M1511 601L1465 281L1335 467L1511 601Z" fill="#090C22" stroke="#090C22" stroke-width="1.51"/>
<path d="M695 1054L737 1191L890 1085L695 1054Z" fill="#09102D" stroke="#09102D" stroke-width="1.51"/>
<path d="M1190 1324L1288 1171L1213 1047L1190 1324Z" fill="#080C22" stroke="#080C22" stroke-width="1.51"/>
<path d="M648 1357L737 1191L695 1054L648 1357Z" fill="#08112F" stroke="#08112F" stroke-width="1.51"/>
<path d="M1213 1047L1327 976L1231 831L1213 1047Z" fill="#070A1D" stroke="#070A1D" stroke-width="1.51"/>
<path d="M1476 601H1511L1335 467L1476 601Z" fill="#080B1D" stroke="#080B1D" stroke-width="1.51"/>
<path d="M1383 854L1511 601H1476L1383 854Z" fill="#050819" stroke="#050819" stroke-width="1.51"/>
<path d="M1728 615L1511 601L1743 763L1728 615Z" fill="#070A1E" stroke="#070A1E" stroke-width="1.51"/>
<path d="M1465 281L1470 229L1408 285L1465 281Z" fill="#0A0C23" stroke="#0A0C23" stroke-width="1.51"/>
<path d="M1308 89L1309 -116L1157 -12L1308 89Z" fill="#00081D" stroke="#00081D" stroke-width="1.51"/>
<path d="M1628 225L1470 229L1465 281L1628 225Z" fill="#0A0D23" stroke="#0A0D23" stroke-width="1.51"/>
<path d="M151 360L53 503L207 410L151 360Z" fill="#0A0D24" stroke="#0A0D24" stroke-width="1.51"/>
<path d="M-21 847L237 1146L432 880L-21 847Z" fill="#090C22" stroke="#090C22" stroke-width="1.51"/>
<path d="M432 880L237 1146L695 1054L432 880Z" fill="#090F2A" stroke="#090F2A" stroke-width="1.51"/>
<path d="M-116 114L53 503L151 360L-116 114Z" fill="#0A0C23" stroke="#0A0C23" stroke-width="1.51"/>
<path d="M1406 -34L1309 -116L1308 89L1406 -34Z" fill="#00081D" stroke="#00081D" stroke-width="1.51"/>
<path d="M300 -139L312 123L525 -59L300 -139Z" fill="#00081D" stroke="#00081D" stroke-width="1.51"/>
<path d="M1489 25L1406 -34L1308 89L1489 25Z" fill="#00081D" stroke="#00081D" stroke-width="1.51"/>
<path d="M247 167L133 38L151 360L247 167Z" fill="#090C21" stroke="#090C21" stroke-width="1.51"/>
<path d="M181 7L133 38L247 167L181 7Z" fill="#08091D" stroke="#08091D" stroke-width="1.51"/>
<path d="M83 2L133 38L181 7L83 2Z" fill="#00081D" stroke="#00081D" stroke-width="1.51"/>
<path d="M1470 229L1489 25L1308 89L1470 229Z" fill="#07091C" stroke="#07091C" stroke-width="1.51"/>
<path d="M1624 114L1489 25L1470 229L1624 114Z" fill="#080A1F" stroke="#080A1F" stroke-width="1.51"/>
<path d="M300 -139L123 -179L181 7L300 -139Z" fill="#00081D" stroke="#00081D" stroke-width="1.51"/>
<path d="M1327 976L1495 1107L1383 854L1327 976Z" fill="#080B20" stroke="#080B20" stroke-width="1.51"/>
<path d="M1213 1047L1288 1171L1327 976L1213 1047Z" fill="#070B20" stroke="#070B20" stroke-width="1.51"/>
<path d="M999 1324L1213 1047L890 1085L999 1324Z" fill="#090E27" stroke="#090E27" stroke-width="1.51"/>
<path d="M1489 25L1487 -2L1406 -34L1489 25Z" fill="#00081D" stroke="#00081D" stroke-width="1.51"/>
<path d="M1511 601L1628 225L1465 281L1511 601Z" fill="#0A0E27" stroke="#0A0E27" stroke-width="1.51"/>
<path d="M1489 25L1696 -39L1487 -2L1489 25Z" fill="#00081D" stroke="#00081D" stroke-width="1.51"/>
<path d="M-21 847L432 880L285 678L-21 847Z" fill="#07091D" stroke="#07091D" stroke-width="1.51"/>
<path d="M377 1343L648 1357L695 1054L377 1343Z" fill="#08112F" stroke="#08112F" stroke-width="1.51"/>
<path d="M133 38L-116 114L151 360L133 38Z" fill="#090A1E" stroke="#090A1E" stroke-width="1.51"/>
<path d="M123 -179L83 2L181 7L123 -179Z" fill="#00081D" stroke="#00081D" stroke-width="1.51"/>
<path d="M1628 225L1624 114L1470 229L1628 225Z" fill="#090C22" stroke="#090C22" stroke-width="1.51"/>
<path d="M53 503L-21 847L285 678L53 503Z" fill="#060819" stroke="#060819" stroke-width="1.51"/>
<path d="M-561 669L-21 847L53 503L-561 669Z" fill="#050717" stroke="#050717" stroke-width="1.51"/>
<path d="M1288 1171L1464 1126L1327 976L1288 1171Z" fill="#080C23" stroke="#080C23" stroke-width="1.51"/>
<path d="M1511 601L1728 615L1628 225L1511 601Z" fill="#0A0D24" stroke="#0A0D24" stroke-width="1.51"/>
<path d="M999 1324H1190L1213 1047L999 1324Z" fill="#080D24" stroke="#080D24" stroke-width="1.51"/>
<path d="M1464 1126L1495 1107L1327 976L1464 1126Z" fill="#080C24" stroke="#080C24" stroke-width="1.51"/>
<path d="M1721 797L1511 601L1383 854L1721 797Z" fill="#05081A" stroke="#05081A" stroke-width="1.51"/>
<path d="M1628 225L1679 94L1624 114L1628 225Z" fill="#090C22" stroke="#090C22" stroke-width="1.51"/>
<path d="M237 1146L377 1343L695 1054L237 1146Z" fill="#090F2C" stroke="#090F2C" stroke-width="1.51"/>
<path d="M1624 114L1696 -39L1489 25L1624 114Z" fill="#00081D" stroke="#00081D" stroke-width="1.51"/>
<path d="M1926 131L1679 94L1628 225L1926 131Z" fill="#090C24" stroke="#090C24" stroke-width="1.51"/>
<path d="M1762 764L1721 797L1861 804L1762 764Z" fill="#080B21" stroke="#080B21" stroke-width="1.51"/>
<path d="M1696 990L1721 797L1383 854L1696 990Z" fill="#080B20" stroke="#080B20" stroke-width="1.51"/>
<path d="M83 2L-30 30L133 38L83 2Z" fill="#00081D" stroke="#00081D" stroke-width="1.51"/>
<path d="M-4 -55L-30 30L83 2L-4 -55Z" fill="#00081D" stroke="#00081D" stroke-width="1.51"/>
<path d="M1721 797L1743 763L1511 601L1721 797Z" fill="#06091B" stroke="#06091B" stroke-width="1.51"/>
<path d="M1905 66L1696 -39L1679 94L1905 66Z" fill="#00081D" stroke="#00081D" stroke-width="1.51"/>
<path d="M123 -179L-4 -55L83 2L123 -179Z" fill="#00081D" stroke="#00081D" stroke-width="1.51"/>
<path d="M1721 797L1762 764L1743 763L1721 797Z" fill="#070B1F" stroke="#070B1F" stroke-width="1.51"/>
<path d="M1743 763L1762 764L1728 615L1743 763Z" fill="#070A1E" stroke="#070A1E" stroke-width="1.51"/>
<path d="M1696 990L1383 854L1495 1107L1696 990Z" fill="#080C22" stroke="#080C22" stroke-width="1.51"/>
<path d="M-21 847L-43 997L237 1146L-21 847Z" fill="#080B20" stroke="#080B20" stroke-width="1.51"/>
<path d="M-30 30L-116 114L133 38L-30 30Z" fill="#060719" stroke="#060719" stroke-width="1.51"/>
<path d="M1484 1230L1696 990L1495 1107L1484 1230Z" fill="#080E27" stroke="#080E27" stroke-width="1.51"/>
<path d="M1679 94L1696 -39L1624 114L1679 94Z" fill="#00081D" stroke="#00081D" stroke-width="1.51"/>
<path d="M1860 572L1628 225L1728 615L1860 572Z" fill="#0A0E27" stroke="#0A0E27" stroke-width="1.51"/>
<path d="M1972 1315L1907 1031L1696 990L1972 1315Z" fill="#07102D" stroke="#07102D" stroke-width="1.51"/>
<path d="M1762 764L1860 572L1728 615L1762 764Z" fill="#080C21" stroke="#080C21" stroke-width="1.51"/>
<path d="M1861 804L1860 572L1762 764L1861 804Z" fill="#070B1F" stroke="#070B1F" stroke-width="1.51"/>
<path d="M1696 990L1861 804L1721 797L1696 990Z" fill="#080C23" stroke="#080C23" stroke-width="1.51"/>
<path d="M1907 1031L1861 804L1696 990L1907 1031Z" fill="#080E27" stroke="#080E27" stroke-width="1.51"/>
<path d="M-43 997L-40 1185L237 1146L-43 997Z" fill="#080C24" stroke="#080C24" stroke-width="1.51"/>
<path d="M-116 114L-275 209L53 503L-116 114Z" fill="#0A0B21" stroke="#0A0B21" stroke-width="1.51"/>
<path d="M1861 804L1974 641L1860 572L1861 804Z" fill="#080C22" stroke="#080C22" stroke-width="1.51"/>
<path d="M2033 327L1926 131L1628 225L2033 327Z" fill="#090F2A" stroke="#090F2A" stroke-width="1.51"/>
<path d="M2033 327L1628 225L1860 572L2033 327Z" fill="#08112E" stroke="#08112E" stroke-width="1.51"/>
<path d="M1926 131L1905 66L1679 94L1926 131Z" fill="#080D24" stroke="#080D24" stroke-width="1.51"/>
<path d="M1649 1437L1696 990L1484 1230L1649 1437Z" fill="#080E28" stroke="#080E28" stroke-width="1.51"/>
<path d="M-275 209L-501 372L53 503L-275 209Z" fill="#0A0C24" stroke="#0A0C24" stroke-width="1.51"/>
<path d="M1861 804L2030 778L1974 641L1861 804Z" fill="#080C22" stroke="#080C22" stroke-width="1.51"/>
<path d="M2042 22L1998 -42L1905 66L2042 22Z" fill="#00081D" stroke="#00081D" stroke-width="1.51"/>
<path d="M1974 641L2033 327L1860 572L1974 641Z" fill="#090F2A" stroke="#090F2A" stroke-width="1.51"/>
<path d="M1998 -42L1696 -39L1905 66L1998 -42Z" fill="#00081D" stroke="#00081D" stroke-width="1.51"/>
<path d="M2054 871L2030 778L1861 804L2054 871Z" fill="#080D25" stroke="#080D25" stroke-width="1.51"/>
<path d="M1907 1031L2054 871L1861 804L1907 1031Z" fill="#080E28" stroke="#080E28" stroke-width="1.51"/>
<path d="M2231 1038L2054 871L1907 1031L2231 1038Z" fill="#070F2B" stroke="#070F2B" stroke-width="1.51"/>
<path d="M2042 22L1905 66L1926 131L2042 22Z" fill="#080D25" stroke="#080D25" stroke-width="1.51"/>
<path d="M1649 1437L1972 1315L1696 990L1649 1437Z" fill="#070F2B" stroke="#070F2B" stroke-width="1.51"/>
<path d="M-501 372L-561 669L53 503L-501 372Z" fill="#080A1D" stroke="#080A1D" stroke-width="1.51"/>
<path d="M1972 1315L2231 1038L1907 1031L1972 1315Z" fill="#06102F" stroke="#06102F" stroke-width="1.51"/>
</g>
<defs>
<clipPath id="clip0_26_1039">
<rect width="1920" height="1080" fill="white"/>
</clipPath>
</defs>
</svg>
